<svg xmlns="http://www.w3.org/2000/svg" viewBox="0 0 32.76 31.79"><defs><style>.cls-1{fill:#fff;fill-rule:evenodd;opacity:0.8;}</style></defs><title>banner</title><g id="Capa_2" data-name="Capa 2"><g id="Capa_1-2" data-name="Capa 1"><path class="cls-1" d="M1.3,30.68C.56,30.29.59,29.54.24,29.33s-.32-1.74.14-2.91a14.59,14.59,0,0,1,2.73-3.26,5.13,5.13,0,0,0-.53-1.6,5,5,0,0,1-.25-3.33,6.56,6.56,0,0,1,.89-2,16.32,16.32,0,0,1-.46-4.4,5.78,5.78,0,0,1,1-2.59A17.42,17.42,0,0,0,3.89,6c-.18-.78-.78-.89-.64-2.16a5.51,5.51,0,0,1,1.93-3,1.22,1.22,0,0,1,1.34,0,5.53,5.53,0,0,1,1.88,3C8.54,5.1,7.94,5.21,7.76,6a17.44,17.44,0,0,0,.11,3.3,5.78,5.78,0,0,1,1,2.59,16.33,16.33,0,0,1-.46,4.4,6.57,6.57,0,0,1,.89,2,5,5,0,0,1-.25,3.33,5.14,5.14,0,0,0-.53,1.6,14.58,14.58,0,0,1,2.73,3.26c.46,1.17.5,2.7.14,2.91s-.32,1-1.06,1.35c-1.31.69-7.74.69-9.05,0ZM32.28,0h.49V31.79h-.49Z"/></g></g></svg>