<svg xmlns="http://www.w3.org/2000/svg" viewBox="0 0 50.64 15.3"><defs><style>.cls-1{fill:#fff;fill-rule:evenodd;}</style></defs><title>logo</title><g id="Capa_2" data-name="Capa 2"><g id="Capa_1-2" data-name="Capa 1"><path class="cls-1" d="M3.18,7.05l.17-.12a3.92,3.92,0,0,1,1.94-.53c2.09-.11,3.63,1.77,4.84,3.21A2.57,2.57,0,0,0,14,10a3,3,0,0,0,.78-1.57,5.08,5.08,0,0,0,0-1.77,7.27,7.27,0,1,0-1.86,6,5,5,0,0,1-.7.07,3.27,3.27,0,0,1-1.93-.49A11.44,11.44,0,0,1,8.6,10.48,8.8,8.8,0,0,0,6.51,8.74c-.64-.35-1.68-.66-2.28-.05a1.23,1.23,0,0,0-.33.87c0,1,.82,1.2,1.62,1.2a1.47,1.47,0,0,1,1,.41l.17.16A1.51,1.51,0,0,0,6.61,11a2.47,2.47,0,0,0-.42-.69c-.15-.18-.46-.5-.71-.51l-.2,0c-.2-.18-.3-.38.22-.34s1.25.89,1.44,1.44.06,1.21-.2,1-.61-.79-1.23-.79-2-.16-2-1.56S5,7.48,6.69,8.43s2.79,2.73,3.86,3.44a3.59,3.59,0,0,0,2.91.22c.3-.12.5-.15.35.1a3.84,3.84,0,0,1-.31.39,7.65,7.65,0,1,1,1.61-6.63h0q.07.3.11.62a5.6,5.6,0,0,1-.07,1.87,3.32,3.32,0,0,1-.89,1.79,2.93,2.93,0,0,1-4.41-.38C8.69,8.47,7.22,6.67,5.3,6.76s-2.18.93-2.32,1S2.75,7.52,2.83,7A5.29,5.29,0,0,1,4.93,3.7,5.22,5.22,0,0,1,6,3.16a4.89,4.89,0,0,1,5.82,2.1A5.65,5.65,0,0,1,12.38,9l0,.13a1.16,1.16,0,0,0,.53-.3,1.67,1.67,0,0,0,.49-.86A3.45,3.45,0,0,0,13.26,6a5.85,5.85,0,1,0-3.2,7h0s.26-.12.31.07a.24.24,0,0,1-.15.28,6.23,6.23,0,1,1,3.42-7.4,3.56,3.56,0,0,1,.13,2,2.13,2.13,0,0,1-.63,1.11A1.58,1.58,0,0,1,12,9.54h0c-.09,0-.13-.19,0-.62a4.72,4.72,0,0,0-.41-3.48A4.33,4.33,0,0,0,9.37,3.57,4.64,4.64,0,0,0,6.15,3.5a4.86,4.86,0,0,0-1,.5A4.34,4.34,0,0,0,3.68,5.64,4.81,4.81,0,0,0,3.19,7v0ZM46,5.72c1.42,0,2.8-.08,3.86,1.1a2.84,2.84,0,0,1,.75,1.91h0a2.87,2.87,0,0,1-.92,2.08c-1,1-2.32.92-3.65.92s-2.53.09-3.57-.75a2.9,2.9,0,0,1-1.12-2.25h0a2.92,2.92,0,0,1,1.26-2.36A5.34,5.34,0,0,1,46,5.72Zm0,.81A4.83,4.83,0,0,0,43.11,7a2.11,2.11,0,0,0-.92,1.7A2.09,2.09,0,0,0,43,10.34c.84.68,2,.57,3.06.57s2.26.08,3.08-.7a2.06,2.06,0,0,0,.67-1.49,2,2,0,0,0-.54-1.36c-.85-.94-2.11-.83-3.26-.83Zm-10.72.8v3.82a.41.41,0,0,1-.41.41h0a.41.41,0,0,1-.41-.41v-4h-1a.37.37,0,0,1-.37-.37h0a.37.37,0,0,1,.37-.37h1A3.24,3.24,0,0,1,35,4.73a2.93,2.93,0,0,1,2.23-1.31,7.16,7.16,0,0,1,1.68,0,4.25,4.25,0,0,1,.61.12A.69.69,0,0,1,40,3.9c.09.17.09.38-.14.46s-1.14-.26-2.54-.13a2.11,2.11,0,0,0-1.56.85,2.27,2.27,0,0,0-.42,1.31h3.86a.37.37,0,0,1,.37.37h0a.37.37,0,0,1-.37.37H35.29c0,.07,0,.14,0,.21Zm-5-3.53h0a.41.41,0,0,1,.41.41v6.95a.41.41,0,0,1-.41.41h0a.41.41,0,0,1-.41-.41V4.2a.41.41,0,0,1,.41-.41ZM19.24,8.39h6.89c-.07-.48-.52-2-3.27-2.06s-3.49,1.32-3.62,2.06Zm7.3.65H19.26c.19.78,1,2.1,3.59,2.07a18.55,18.55,0,0,0,3.57-.41s.38.09.17.57a.77.77,0,0,1-.46.3l-.65.14a15.7,15.7,0,0,1-2.62.22,4.79,4.79,0,0,1-3.58-1.23,3.07,3.07,0,0,1-.88-2,2.87,2.87,0,0,1,.84-2,5,5,0,0,1,3.62-1.18,4.27,4.27,0,0,1,3.5,1.43,3,3,0,0,1,.58,1.4S27,9,26.54,9Z"/></g></g></svg>