<svg xmlns="http://www.w3.org/2000/svg" viewBox="0 0 141.42 8.13"><defs><style>.cls-1{fill:#bf930d;fill-rule:evenodd;opacity:0.5;}</style></defs><title>title</title><g id="Capa_2" data-name="Capa 2"><g id="Capa_1-2" data-name="Capa 1"><path class="cls-1" d="M1.63,8.13V6.5H0V8.13Zm139.8,0V6.5H139.8V8.13Zm0-6.5V0H139.8V1.63Zm0,3.25V3.25H139.8V4.88Zm-3.25,3.25V6.5h-1.63V8.13Zm0-6.5V0h-1.63V1.63Zm0,3.25V3.25h-1.63V4.88Zm-3.25,3.25V6.5H133.3V8.13Zm0-6.5V0H133.3V1.63Zm0,3.25V3.25H133.3V4.88Zm-3.25,3.25V6.5H130V8.13Zm0-6.5V0H130V1.63Zm0,3.25V3.25H130V4.88Zm-3.25,3.25V6.5h-1.63V8.13Zm0-6.5V0h-1.63V1.63Zm0,3.25V3.25h-1.63V4.88Zm-3.25,3.25V6.5h-1.63V8.13Zm0-6.5V0h-1.63V1.63Zm0,3.25V3.25h-1.63V4.88Zm-3.25,3.25V6.5h-1.63V8.13Zm0-6.5V0h-1.63V1.63Zm0,3.25V3.25h-1.63V4.88Zm-3.25,3.25V6.5H117V8.13Zm0-6.5V0H117V1.63Zm0,3.25V3.25H117V4.88Zm-3.25,3.25V6.5h-1.63V8.13Zm0-6.5V0h-1.63V1.63Zm0,3.25V3.25h-1.63V4.88Zm-3.25,3.25V6.5h-1.63V8.13Zm0-6.5V0h-1.63V1.63Zm0,3.25V3.25h-1.63V4.88Zm-3.25,3.25V6.5h-1.63V8.13Zm0-6.5V0h-1.63V1.63Zm0,3.25V3.25h-1.63V4.88Zm-3.25,3.25V6.5H104V8.13Zm0-6.5V0H104V1.63Zm0,3.25V3.25H104V4.88Zm-3.25,3.25V6.5h-1.63V8.13Zm0-6.5V0h-1.63V1.63Zm0,3.25V3.25h-1.63V4.88ZM99.16,8.13V6.5H97.53V8.13Zm0-6.5V0H97.53V1.63Zm0,3.25V3.25H97.53V4.88ZM95.91,8.13V6.5H94.28V8.13Zm0-6.5V0H94.28V1.63Zm0,3.25V3.25H94.28V4.88ZM92.66,8.13V6.5H91V8.13Zm0-6.5V0H91V1.63Zm0,3.25V3.25H91V4.88ZM89.41,8.13V6.5H87.78V8.13Zm0-6.5V0H87.78V1.63Zm0,3.25V3.25H87.78V4.88ZM86.15,8.13V6.5H84.53V8.13Zm0-6.5V0H84.53V1.63Zm0,3.25V3.25H84.53V4.88ZM82.9,8.13V6.5H81.28V8.13Zm0-6.5V0H81.28V1.63Zm0,3.25V3.25H81.28V4.88ZM79.65,8.13V6.5H78V8.13Zm0-6.5V0H78V1.63Zm0,3.25V3.25H78V4.88ZM76.4,8.13V6.5H74.78V8.13Zm0-6.5V0H74.78V1.63Zm0,3.25V3.25H74.78V4.88ZM73.15,8.13V6.5H71.52V8.13Zm0-6.5V0H71.52V1.63Zm0,3.25V3.25H71.52V4.88ZM69.9,8.13V6.5H68.27V8.13Zm0-6.5V0H68.27V1.63Zm0,3.25V3.25H68.27V4.88ZM66.65,8.13V6.5H65V8.13Zm0-6.5V0H65V1.63Zm0,3.25V3.25H65V4.88ZM63.4,8.13V6.5H61.77V8.13Zm0-6.5V0H61.77V1.63Zm0,3.25V3.25H61.77V4.88ZM60.15,8.13V6.5H58.52V8.13Zm0-6.5V0H58.52V1.63Zm0,3.25V3.25H58.52V4.88ZM56.89,8.13V6.5H55.27V8.13Zm0-6.5V0H55.27V1.63Zm0,3.25V3.25H55.27V4.88ZM53.64,8.13V6.5H52V8.13Zm0-6.5V0H52V1.63Zm0,3.25V3.25H52V4.88ZM50.39,8.13V6.5H48.77V8.13Zm0-6.5V0H48.77V1.63Zm0,3.25V3.25H48.77V4.88ZM47.14,8.13V6.5H45.52V8.13Zm0-6.5V0H45.52V1.63Zm0,3.25V3.25H45.52V4.88ZM43.89,8.13V6.5H42.26V8.13Zm0-6.5V0H42.26V1.63Zm0,3.25V3.25H42.26V4.88ZM40.64,8.13V6.5H39V8.13Zm0-6.5V0H39V1.63Zm0,3.25V3.25H39V4.88ZM37.39,8.13V6.5H35.76V8.13Zm0-6.5V0H35.76V1.63Zm0,3.25V3.25H35.76V4.88ZM34.14,8.13V6.5H32.51V8.13Zm0-6.5V0H32.51V1.63Zm0,3.25V3.25H32.51V4.88ZM30.89,8.13V6.5H29.26V8.13Zm0-6.5V0H29.26V1.63Zm0,3.25V3.25H29.26V4.88ZM27.63,8.13V6.5H26V8.13Zm0-6.5V0H26V1.63Zm0,3.25V3.25H26V4.88ZM24.38,8.13V6.5H22.76V8.13Zm0-6.5V0H22.76V1.63Zm0,3.25V3.25H22.76V4.88ZM21.13,8.13V6.5H19.51V8.13Zm0-6.5V0H19.51V1.63Zm0,3.25V3.25H19.51V4.88ZM17.88,8.13V6.5H16.26V8.13Zm0-6.5V0H16.26V1.63Zm0,3.25V3.25H16.26V4.88ZM14.63,8.13V6.5H13V8.13Zm0-6.5V0H13V1.63Zm0,3.25V3.25H13V4.88ZM11.38,8.13V6.5H9.75V8.13Zm0-6.5V0H9.75V1.63Zm0,3.25V3.25H9.75V4.88ZM8.13,8.13V6.5H6.5V8.13Zm0-6.5V0H6.5V1.63Zm0,3.25V3.25H6.5V4.88ZM4.88,8.13V6.5H3.25V8.13Zm0-6.5V0H3.25V1.63Zm0,3.25V3.25H3.25V4.88ZM1.63,1.63V0H0V1.63Zm0,3.25V3.25H0V4.88Z"/></g></g></svg>