<svg xmlns="http://www.w3.org/2000/svg" viewBox="0 0 7.82 7.12"><defs><style>.cls-1{fill:#bf930d;fill-rule:evenodd;}</style></defs><title>user</title><g id="Capa_2" data-name="Capa 2"><g id="Capa_1-2" data-name="Capa 1"><path class="cls-1" d="M0,7.12c0-.36,0-.87.33-1A16.9,16.9,0,0,0,3.16,4.52c.32-.46-.12-.75-.28-1.15A3.77,3.77,0,0,1,2.6,2.19c0-.5,0-1.92,1.1-2.16a.48.48,0,0,1,.22,0,.48.48,0,0,1,.22,0c1.12.24,1.1,1.65,1.1,2.16A3.81,3.81,0,0,1,4.93,3.4c-.16.39-.59.67-.27,1.13A16.88,16.88,0,0,0,7.48,6.1c.32.15.35.66.33,1Z"/></g></g></svg>