<svg xmlns="http://www.w3.org/2000/svg" viewBox="0 0 11.46 12.53"><defs><style>.cls-1{fill:#fff;fill-rule:evenodd;opacity:0.71;}</style></defs><title>accesorios</title><g id="Capa_2" data-name="Capa 2"><g id="Capa_1-2" data-name="Capa 1"><path class="cls-1" d="M10.21.17l1,.9a.71.71,0,0,1,0,1L7.85,5.94l0,0h0a2.22,2.22,0,0,1-.69.47,4.23,4.23,0,0,0-1.39,1c-.52.56-2,2.25-2.4,2.79S2.87,11.48,2.42,12l0,0a1.36,1.36,0,1,1-2-1.8l0,0C.87,9.71,1.56,9.56,2,9.1S4,7,4.52,6.38a4.23,4.23,0,0,0,.85-1.5,2.22,2.22,0,0,1,.38-.74h0l0,0L9.21.25a.71.71,0,0,1,1-.07ZM1.53,11a.25.25,0,1,0,0,.36A.25.25,0,0,0,1.53,11Z"/></g></g></svg>