<svg xmlns="http://www.w3.org/2000/svg" viewBox="0 0 9.75 9.17"><defs><style>.cls-1{fill:#bf930d;fill-rule:evenodd;}.cls-2{fill:#fff;}</style></defs><title>heart_count</title><g id="Capa_2" data-name="Capa 2"><g id="Capa_1-2" data-name="Capa 1"><path class="cls-1" d="M4,3.37a2.73,2.73,0,0,0-1.87-.78,2.41,2.41,0,0,0-1.67.89A2,2,0,0,0,.59,6.12a19.43,19.43,0,0,0,3,2.9A.65.65,0,0,0,4,9.17.65.65,0,0,0,4.42,9,18.77,18.77,0,0,0,7.48,6a1.91,1.91,0,0,0,0-2.53,2.41,2.41,0,0,0-1.67-.89A2.73,2.73,0,0,0,4,3.37Z"/><circle class="cls-2" cx="7.23" cy="2.53" r="2.53"/><path d="M6.45,2.53a2.37,2.37,0,0,1,.09-.74.92.92,0,0,1,.28-.43A.72.72,0,0,1,7.3,1.2a.77.77,0,0,1,.37.08.7.7,0,0,1,.26.24,1.3,1.3,0,0,1,.16.39,2.56,2.56,0,0,1,.06.61,2.4,2.4,0,0,1-.09.74.93.93,0,0,1-.28.43.72.72,0,0,1-.47.15.71.71,0,0,1-.59-.27,1.71,1.71,0,0,1-.26-1.06Zm.33,0a1.63,1.63,0,0,0,.15.85.43.43,0,0,0,.74,0,1.63,1.63,0,0,0,.15-.85,1.63,1.63,0,0,0-.15-.85.44.44,0,0,0-.37-.21.41.41,0,0,0-.35.19A1.65,1.65,0,0,0,6.78,2.53Z"/></g></g></svg>