<svg xmlns="http://www.w3.org/2000/svg" viewBox="0 0 6.34 12.53"><defs><style>.cls-1{fill:#fff;fill-rule:evenodd;opacity:0.71;}</style></defs><title>hyper</title><g id="Capa_2" data-name="Capa 2"><g id="Capa_1-2" data-name="Capa 1"><path class="cls-1" d="M3.82,12.25S5,12.34,5.42,12s.71-.41.89-.86a1.64,1.64,0,0,0-1.17-1.7c-.71,0-1.43-.05-1.49-.32a14.43,14.43,0,0,1,0-2.48l.08-.84s.12-.13.05-.23S4,2.77,4,2.52s.21-.49.19-.61a1,1,0,0,0-.07-.22A1.25,1.25,0,0,0,4.31,1C4.28.7,4,0,3.43,0a1.15,1.15,0,0,0-1,.47c-.24.33-.35.76-.48.91s-.23.29-.18.44a.79.79,0,0,0,.16.28s-.39.1-.38.23a.31.31,0,0,0,.11.21.74.74,0,0,0,0,.27c0,.08,0,.13,0,.26a2,2,0,0,1-.05.35c0,.1-.1.93-.14,1.34S1.15,6.4,1.08,8.11a5.52,5.52,0,0,1-.42,2.42A2.11,2.11,0,0,1,.35,11c-.06.12-.3.25-.34.49s.1.65,1,.86A4.77,4.77,0,0,0,3.82,12.25Z"/></g></g></svg>