<svg xmlns="http://www.w3.org/2000/svg" viewBox="0 0 5.81 12.53"><defs><style>.cls-1{fill:#fff;fill-rule:evenodd;opacity:0.71;}</style></defs><title>infinity</title><g id="Capa_2" data-name="Capa 2"><g id="Capa_1-2" data-name="Capa 1"><path class="cls-1" d="M2.91,0s-.28,0-.54.39a6.53,6.53,0,0,0-.52,1.11l.56.34.25.66.25,0h0l.25,0,.25-.66L4,1.51A6.52,6.52,0,0,0,3.44.39C3.19,0,2.91,0,2.91,0ZM1.82,1.62l.5.31.26.69a2.73,2.73,0,0,0,.33,0,2.74,2.74,0,0,0,.33,0l.26-.69L4,1.62a2.17,2.17,0,0,1,.09.44,4.44,4.44,0,0,1,0,.68.64.64,0,0,1,.11.34,2.12,2.12,0,0,1,0,.4v.42a19.86,19.86,0,0,1,.15,2.2c0,1.1,0,2.85,0,2.94a1.72,1.72,0,0,1-.1.36l.12,0v.45a1.64,1.64,0,0,1,1,.58l.21.36-.12.07a4.41,4.41,0,0,1-.8.31h0l-.36.65a1.5,1.5,0,0,1-.38.07c-.3,0-.61,0-.92,0s-.61,0-.92,0a1.5,1.5,0,0,1-.38-.07l-.36-.65h0a4.43,4.43,0,0,1-.8-.31l-.12-.07.21-.36a1.64,1.64,0,0,1,1-.58V9.44l.12,0a1.73,1.73,0,0,1-.1-.36c0-.1,0-1.85,0-2.94a19.88,19.88,0,0,1,.15-2.2V3.49a2.1,2.1,0,0,1,0-.4.64.64,0,0,1,.11-.34,4.47,4.47,0,0,1,0-.68,2.17,2.17,0,0,1,.09-.44ZM.24,10.93a1.35,1.35,0,0,0-.21.92c.12.34,1.51.68,2.88.68s2.76-.34,2.88-.68a1.35,1.35,0,0,0-.21-.92,3.8,3.8,0,0,1-.94.39L4.28,12a1.6,1.6,0,0,1-.45.09A12.71,12.71,0,0,1,2,12,1.6,1.6,0,0,1,1.53,12l-.36-.64a3.79,3.79,0,0,1-.94-.39ZM2.91,5.77a.81.81,0,1,0,.81.81.81.81,0,0,0-.81-.81Zm0,.27a.54.54,0,1,0,.54.54A.54.54,0,0,0,2.91,6Zm0-.14a.68.68,0,1,0,.68.68A.68.68,0,0,0,2.91,5.89Z"/></g></g></svg>