<svg xmlns="http://www.w3.org/2000/svg" viewBox="0 0 9.62 12.52"><defs><style>.cls-1{fill:#fff;fill-rule:evenodd;opacity:0.71;}</style></defs><title>mistico</title><g id="Capa_2" data-name="Capa 2"><g id="Capa_1-2" data-name="Capa 1"><path class="cls-1" d="M3.8,4.53a.3.3,0,0,1-.31-.31.34.34,0,0,1,.25-.39A.3.3,0,0,1,4,4.14a.34.34,0,0,1-.25.39ZM6,9.71a1.13,1.13,0,0,0-.22.06h0a.84.84,0,0,0-.06-.39s-.06-.12-.11-.13h0c-.06,0-.12.08-.15.12a.9.9,0,0,0-.13.43,1,1,0,0,0,0,.25,1.44,1.44,0,0,0-.17.18,1.09,1.09,0,0,1-.06-.45c0-.42.25-.75.5-.75a.28.28,0,0,1,.16.05l0-.46a.34.34,0,0,1-.23.06A.64.64,0,0,1,5,8.08c0-.31.16-.55.41-.53a.45.45,0,0,1,.23.09v0a6.61,6.61,0,0,0-.18-.8c0,.22-.15.37-.32.34s-.38-.31-.4-.63S4.84,6,5,6a.35.35,0,0,1,.19.11L5,5.36a7.41,7.41,0,0,1-.3-1.13.32.32,0,0,1-.25.29.3.3,0,0,1-.31-.31.34.34,0,0,1,.25-.39A.27.27,0,0,1,4.64,4a8.28,8.28,0,0,1,0-1.42,11.16,11.16,0,0,0,0-1.17.9.9,0,0,1-.15.26h0a2.54,2.54,0,0,0-.24.52C4.09,2.5,4.07,2,4,1.89l-.13-.22,0-.07h0a1,1,0,0,1-.1-.45c0-.42.21-.8.47-.85a.29.29,0,0,1,.17,0,.63.63,0,0,0-.3-.3C3.61-.17,3,1.08,2.55,2.21a7.57,7.57,0,0,0-.38,3.1A7.93,7.93,0,0,1,2,7.18a7.83,7.83,0,0,0-.27-.79C1.6,6,1.26,5.15,1,4.55s-.51-1.18-.86-1S.08,4.48.1,4.93A10.75,10.75,0,0,0,.66,8c.4.89,0,3.17-.12,3.65s1,.66,1.2.65.68.16,1.46.21a7.78,7.78,0,0,0,2.55-.18,6.92,6.92,0,0,0,.89-.82,1.84,1.84,0,0,0,1.06-.13c.45-.24,1.21-.55,1.21-.55s.61,0,.7-.21S9,10,8.53,9.9a1.87,1.87,0,0,0-1.1.05c-.45.12-.18,0-.69-.19a1,1,0,0,0-.74,0ZM4.15,1.61h0S4,1.54,4,1.5a.76.76,0,0,1-.07-.35A1,1,0,0,1,4,.69c0-.06.11-.16.18-.18h0s.09.07.11.11A.76.76,0,0,1,4.44,1a1,1,0,0,1-.11.46c0,.06-.11.16-.18.18ZM4.08,3.27c-.17,0-.31-.13-.31-.34a.42.42,0,0,1,.31-.43c.17,0,.31.13.31.34a.42.42,0,0,1-.31.43Zm0-.22S4,3,4,2.93s0-.2.12-.21.06.09.06.12,0,.2-.12.21ZM4.39,4.3s-.06-.09-.06-.11,0-.14.06-.15.06.09.06.11,0,.14-.06.15Zm-.63,0s.07-.11.06-.15,0-.12-.06-.11-.07.11-.06.15,0,.12.06.11Zm.61,3.47a.49.49,0,0,1,.5.56.64.64,0,0,1-.62.56.49.49,0,0,1-.5-.56.64.64,0,0,1,.62-.56Zm0,.22a.28.28,0,0,1,.28.32.42.42,0,0,1-.4.37A.28.28,0,0,1,4,8.37.42.42,0,0,1,4.37,8Zm1.29.12V8.2c0,.11,0,.27-.17.26s-.29-.25-.31-.41,0-.3.17-.29.27.21.3.36ZM4,7.26a.65.65,0,0,1-.56-.59.43.43,0,0,1,.45-.52.65.65,0,0,1,.56.59A.43.43,0,0,1,4,7.26Zm0-.22a.44.44,0,0,1-.36-.39c0-.14.05-.29.22-.28a.44.44,0,0,1,.36.39c0,.14-.05.29-.22.28Zm1.08-.1h0s-.1-.08-.12-.11a.7.7,0,0,1-.1-.32A.52.52,0,0,1,5,6.3a.17.17,0,0,1,0-.06H5s.1.08.12.11a.69.69,0,0,1,.1.32.51.51,0,0,1,0,.22.17.17,0,0,1,0,.06ZM3.84,5.68a.34.34,0,0,1-.35-.34.38.38,0,0,1,.28-.43.34.34,0,0,1,.35.34.38.38,0,0,1-.28.43Zm0-.22c-.06,0-.1-.1-.1-.15s0-.19.09-.2.1.1.1.15,0,.19-.09.2Zm.81.13a.46.46,0,0,1-.29-.43c0-.21.09-.37.23-.34a.46.46,0,0,1,.29.43c0,.21-.09.37-.23.34Zm0-.24,0,0a.39.39,0,0,1-.05-.17.36.36,0,0,1,0-.09l0,0a.39.39,0,0,1,.05.17.35.35,0,0,1,0,.09Zm-.36,4a.64.64,0,0,1,.59.75.8.8,0,0,1-.74.75.64.64,0,0,1-.59-.75.8.8,0,0,1,.74-.75Zm0,.22a.43.43,0,0,1,.37.51.59.59,0,0,1-.52.56.43.43,0,0,1-.37-.51A.59.59,0,0,1,4.28,9.58Z"/></g></g></svg>